<svg width="204" height="154" viewBox="0 0 204 154" fill="none" xmlns="http://www.w3.org/2000/svg">
<path fill-rule="evenodd" clip-rule="evenodd" d="M108.5 154C161.243 154 204 119.526 204 77C204 34.4741 161.243 0 108.5 0C55.7568 0 13 34.4741 13 77C13 83.4777 13.9921 89.7686 15.8604 95.7793L0 127.5L25.1833 114.661C41.5426 138.138 72.7239 154 108.5 154Z" fill="white"/>
<path d="M48.0849 72.14C47.0955 72.14 46.1995 71.9253 45.3969 71.496C44.6035 71.0573 43.9782 70.4553 43.5209 69.69C43.0729 68.9247 42.8489 68.0613 42.8489 67.1C42.8489 66.1387 43.0775 65.2753 43.5349 64.51C43.9922 63.7447 44.6175 63.1473 45.4109 62.718C46.2135 62.2793 47.1095 62.06 48.0989 62.06C48.9015 62.06 49.6342 62.2 50.2969 62.48C50.9595 62.76 51.5195 63.166 51.9769 63.698L50.8009 64.804C50.0915 64.0387 49.2189 63.656 48.1829 63.656C47.5109 63.656 46.9089 63.8053 46.3769 64.104C45.8449 64.3933 45.4295 64.7993 45.1309 65.322C44.8322 65.8447 44.6829 66.4373 44.6829 67.1C44.6829 67.7627 44.8322 68.3553 45.1309 68.878C45.4295 69.4007 45.8449 69.8113 46.3769 70.11C46.9089 70.3993 47.5109 70.544 48.1829 70.544C49.2189 70.544 50.0915 70.1567 50.8009 69.382L51.9769 70.502C51.5195 71.034 50.9549 71.44 50.2829 71.72C49.6202 72 48.8875 72.14 48.0849 72.14ZM53.2607 64.524H55.0107V67.562H58.7767V64.524H60.5267V72H58.7767V69.046H55.0107V72H53.2607V64.524ZM62.6621 64.524H64.4121V69.452L68.5421 64.524H70.1381V72H68.3881V67.072L64.2721 72H62.6621V64.524ZM79.6321 72V67.044L77.1121 71.216H76.3561L73.8781 67.03V72H72.2821V64.524H74.1161L76.7761 69.2L79.5621 64.524H81.2001L81.2141 72H79.6321ZM86.1374 64.44C87.2388 64.44 88.0788 64.706 88.6574 65.238C89.2454 65.7607 89.5394 66.554 89.5394 67.618V72H87.8874V71.09C87.6728 71.4167 87.3648 71.6687 86.9634 71.846C86.5714 72.014 86.0954 72.098 85.5354 72.098C84.9754 72.098 84.4854 72.0047 84.0654 71.818C83.6454 71.622 83.3188 71.356 83.0854 71.02C82.8614 70.6747 82.7494 70.2873 82.7494 69.858C82.7494 69.186 82.9968 68.6493 83.4914 68.248C83.9954 67.8373 84.7841 67.632 85.8574 67.632H87.7894V67.52C87.7894 66.9973 87.6308 66.596 87.3134 66.316C87.0054 66.036 86.5434 65.896 85.9274 65.896C85.5074 65.896 85.0921 65.9613 84.6814 66.092C84.2801 66.2227 83.9394 66.4047 83.6594 66.638L82.9734 65.364C83.3654 65.0653 83.8368 64.8367 84.3874 64.678C84.9381 64.5193 85.5214 64.44 86.1374 64.44ZM85.8994 70.824C86.3381 70.824 86.7254 70.726 87.0614 70.53C87.4068 70.3247 87.6494 70.0353 87.7894 69.662V68.794H85.9834C84.9754 68.794 84.4714 69.1253 84.4714 69.788C84.4714 70.1053 84.5974 70.3573 84.8494 70.544C85.1014 70.7307 85.4514 70.824 85.8994 70.824ZM97.4169 66.008H94.7989V72H93.0489V66.008H90.4169V64.524H97.4169V66.008ZM102.228 66.988C103.18 66.988 103.908 67.2027 104.412 67.632C104.926 68.0613 105.182 68.668 105.182 69.452C105.182 70.2733 104.902 70.908 104.342 71.356C103.782 71.804 102.994 72.0233 101.976 72.014L98.4764 72V64.524H100.226V66.974L102.228 66.988ZM101.822 70.726C102.336 70.7353 102.728 70.628 102.998 70.404C103.269 70.18 103.404 69.8533 103.404 69.424C103.404 69.004 103.274 68.696 103.012 68.5C102.751 68.304 102.354 68.2013 101.822 68.192L100.226 68.178V70.712L101.822 70.726ZM117.52 72V67.044L115 71.216H114.244L111.766 67.03V72H110.17V64.524H112.004L114.664 69.2L117.45 64.524H119.088L119.102 72H117.52ZM128.295 64.524L124.795 72.602C124.468 73.414 124.072 73.9833 123.605 74.31C123.138 74.646 122.574 74.814 121.911 74.814C121.538 74.814 121.169 74.7533 120.805 74.632C120.441 74.5107 120.142 74.3427 119.909 74.128L120.609 72.84C120.777 72.9987 120.973 73.1247 121.197 73.218C121.43 73.3113 121.664 73.358 121.897 73.358C122.205 73.358 122.457 73.2787 122.653 73.12C122.858 72.9613 123.045 72.6953 123.213 72.322L123.339 72.028L120.077 64.524H121.897L124.249 70.054L126.615 64.524H128.295ZM135.612 64.524V72H133.862V66.008H131.062L130.992 67.492C130.945 68.4813 130.852 69.312 130.712 69.984C130.581 70.6467 130.352 71.174 130.026 71.566C129.708 71.9487 129.27 72.14 128.71 72.14C128.448 72.14 128.126 72.0887 127.744 71.986L127.828 70.516C127.958 70.544 128.07 70.558 128.164 70.558C128.518 70.558 128.784 70.418 128.962 70.138C129.139 69.8487 129.251 69.508 129.298 69.116C129.354 68.7147 129.4 68.1453 129.438 67.408L129.564 64.524H135.612ZM141.51 66.988C142.462 66.988 143.19 67.2027 143.694 67.632C144.208 68.0613 144.464 68.668 144.464 69.452C144.464 70.2733 144.184 70.908 143.624 71.356C143.064 71.804 142.276 72.0233 141.258 72.014L137.758 72V64.524H139.508V66.974L141.51 66.988ZM141.104 70.726C141.618 70.7353 142.01 70.628 142.28 70.404C142.551 70.18 142.686 69.8533 142.686 69.424C142.686 69.004 142.556 68.696 142.294 68.5C142.033 68.304 141.636 68.2013 141.104 68.192L139.508 68.178V70.712L141.104 70.726ZM151.017 66.008H148.399V72H146.649V66.008H144.017V64.524H151.017V66.008ZM152.077 64.524H153.827V69.452L157.957 64.524H159.553V72H157.803V67.072L153.687 72H152.077V64.524ZM164.805 69.004H163.447V72H161.697V64.524H163.447V67.548H164.847L167.059 64.524H168.935L166.219 68.122L169.117 72H167.059L164.805 69.004ZM170.141 64.524H171.891V69.452L176.021 64.524H177.617V72H175.867V67.072L171.751 72H170.141V64.524ZM65.8269 92.38H69.6769V93.836H65.8269V92.38ZM77.3927 89.412C78.1767 89.412 78.8814 89.58 79.5067 89.916C80.1321 90.2427 80.6221 90.7 80.9767 91.288C81.3314 91.8667 81.5087 92.5247 81.5087 93.262C81.5087 93.9993 81.3314 94.662 80.9767 95.25C80.6221 95.838 80.1321 96.3 79.5067 96.636C78.8814 96.9627 78.1767 97.126 77.3927 97.126C76.7114 97.126 76.0954 97.014 75.5447 96.79C74.9941 96.566 74.5274 96.244 74.1447 95.824L75.1527 94.844C75.7407 95.432 76.4641 95.726 77.3227 95.726C77.9574 95.726 78.4987 95.558 78.9467 95.222C79.4041 94.8767 79.6981 94.4193 79.8287 93.85H76.3707V92.59H79.8147C79.6747 92.0393 79.3807 91.6053 78.9327 91.288C78.4847 90.9613 77.9481 90.798 77.3227 90.798C76.4641 90.798 75.7407 91.0967 75.1527 91.694L74.1447 90.714C74.5181 90.2847 74.9801 89.9627 75.5307 89.748C76.0907 89.524 76.7114 89.412 77.3927 89.412ZM88.6421 91.008H86.0241V97H84.2741V91.008H81.6421V89.524H88.6421V91.008ZM92.7053 97.098C91.9493 97.098 91.268 96.9347 90.6613 96.608C90.0547 96.2813 89.5787 95.8287 89.2333 95.25C88.8973 94.662 88.7293 93.9993 88.7293 93.262C88.7293 92.5247 88.8973 91.8667 89.2333 91.288C89.5787 90.7093 90.0547 90.2567 90.6613 89.93C91.268 89.6033 91.9493 89.44 92.7053 89.44C93.4707 89.44 94.1567 89.6033 94.7633 89.93C95.37 90.2567 95.8413 90.7093 96.1773 91.288C96.5227 91.8667 96.6953 92.5247 96.6953 93.262C96.6953 93.9993 96.5227 94.662 96.1773 95.25C95.8413 95.8287 95.37 96.2813 94.7633 96.608C94.1567 96.9347 93.4707 97.098 92.7053 97.098ZM92.7053 95.6C93.3493 95.6 93.8813 95.3853 94.3013 94.956C94.7213 94.5267 94.9313 93.962 94.9313 93.262C94.9313 92.562 94.7213 91.9973 94.3013 91.568C93.8813 91.1387 93.3493 90.924 92.7053 90.924C92.0613 90.924 91.5293 91.1387 91.1093 91.568C90.6987 91.9973 90.4933 92.562 90.4933 93.262C90.4933 93.962 90.6987 94.5267 91.1093 94.956C91.5293 95.3853 92.0613 95.6 92.7053 95.6ZM107.291 93.108C108.215 93.388 108.677 93.9853 108.677 94.9C108.677 95.572 108.425 96.09 107.921 96.454C107.417 96.818 106.671 97 105.681 97H101.873V89.524H105.527C106.442 89.524 107.156 89.692 107.669 90.028C108.183 90.364 108.439 90.84 108.439 91.456C108.439 91.8387 108.337 92.17 108.131 92.45C107.935 92.73 107.655 92.9493 107.291 93.108ZM103.539 92.646H105.373C106.279 92.646 106.731 92.3333 106.731 91.708C106.731 91.1013 106.279 90.798 105.373 90.798H103.539V92.646ZM105.541 95.726C106.503 95.726 106.983 95.4133 106.983 94.788C106.983 94.4613 106.871 94.2187 106.647 94.06C106.423 93.892 106.073 93.808 105.597 93.808H103.539V95.726H105.541ZM117.331 93.304C117.331 93.4253 117.322 93.598 117.303 93.822H111.437C111.54 94.3727 111.806 94.8113 112.235 95.138C112.674 95.4553 113.215 95.614 113.859 95.614C114.681 95.614 115.357 95.3433 115.889 94.802L116.827 95.88C116.491 96.2813 116.067 96.5847 115.553 96.79C115.04 96.9953 114.461 97.098 113.817 97.098C112.996 97.098 112.273 96.9347 111.647 96.608C111.022 96.2813 110.537 95.8287 110.191 95.25C109.855 94.662 109.687 93.9993 109.687 93.262C109.687 92.534 109.851 91.8807 110.177 91.302C110.513 90.714 110.975 90.2567 111.563 89.93C112.151 89.6033 112.814 89.44 113.551 89.44C114.279 89.44 114.928 89.6033 115.497 89.93C116.076 90.2473 116.524 90.7 116.841 91.288C117.168 91.8667 117.331 92.5387 117.331 93.304ZM113.551 90.84C112.991 90.84 112.515 91.008 112.123 91.344C111.741 91.6707 111.507 92.1093 111.423 92.66H115.665C115.591 92.1187 115.362 91.68 114.979 91.344C114.597 91.008 114.121 90.84 113.551 90.84ZM122.437 97.098C121.663 97.098 120.967 96.9347 120.351 96.608C119.735 96.2813 119.255 95.8287 118.909 95.25C118.564 94.662 118.391 93.9993 118.391 93.262C118.391 92.5247 118.564 91.8667 118.909 91.288C119.255 90.7093 119.731 90.2567 120.337 89.93C120.953 89.6033 121.653 89.44 122.437 89.44C123.175 89.44 123.819 89.5893 124.369 89.888C124.929 90.1867 125.349 90.616 125.629 91.176L124.285 91.96C124.071 91.6147 123.8 91.358 123.473 91.19C123.156 91.0127 122.806 90.924 122.423 90.924C121.77 90.924 121.229 91.1387 120.799 91.568C120.37 91.988 120.155 92.5527 120.155 93.262C120.155 93.9713 120.365 94.5407 120.785 94.97C121.215 95.39 121.761 95.6 122.423 95.6C122.806 95.6 123.156 95.516 123.473 95.348C123.8 95.1707 124.071 94.9093 124.285 94.564L125.629 95.348C125.34 95.908 124.915 96.342 124.355 96.65C123.805 96.9487 123.165 97.098 122.437 97.098ZM133.851 93.304C133.851 93.4253 133.841 93.598 133.823 93.822H127.957C128.059 94.3727 128.325 94.8113 128.755 95.138C129.193 95.4553 129.735 95.614 130.379 95.614C131.2 95.614 131.877 95.3433 132.409 94.802L133.347 95.88C133.011 96.2813 132.586 96.5847 132.073 96.79C131.559 96.9953 130.981 97.098 130.337 97.098C129.515 97.098 128.792 96.9347 128.167 96.608C127.541 96.2813 127.056 95.8287 126.711 95.25C126.375 94.662 126.207 93.9993 126.207 93.262C126.207 92.534 126.37 91.8807 126.697 91.302C127.033 90.714 127.495 90.2567 128.083 89.93C128.671 89.6033 129.333 89.44 130.071 89.44C130.799 89.44 131.447 89.6033 132.017 89.93C132.595 90.2473 133.043 90.7 133.361 91.288C133.687 91.8667 133.851 92.5387 133.851 93.304ZM130.071 90.84C129.511 90.84 129.035 91.008 128.643 91.344C128.26 91.6707 128.027 92.1093 127.943 92.66H132.185C132.11 92.1187 131.881 91.68 131.499 91.344C131.116 91.008 130.64 90.84 130.071 90.84ZM142.235 89.524V97H140.485V91.008H137.685L137.615 92.492C137.568 93.4813 137.475 94.312 137.335 94.984C137.204 95.6467 136.976 96.174 136.649 96.566C136.332 96.9487 135.893 97.14 135.333 97.14C135.072 97.14 134.75 97.0887 134.367 96.986L134.451 95.516C134.582 95.544 134.694 95.558 134.787 95.558C135.142 95.558 135.408 95.418 135.585 95.138C135.762 94.8487 135.874 94.508 135.921 94.116C135.977 93.7147 136.024 93.1453 136.061 92.408L136.187 89.524H142.235ZM147.714 97.098C146.958 97.098 146.277 96.9347 145.67 96.608C145.063 96.2813 144.587 95.8287 144.242 95.25C143.906 94.662 143.738 93.9993 143.738 93.262C143.738 92.5247 143.906 91.8667 144.242 91.288C144.587 90.7093 145.063 90.2567 145.67 89.93C146.277 89.6033 146.958 89.44 147.714 89.44C148.479 89.44 149.165 89.6033 149.772 89.93C150.379 90.2567 150.85 90.7093 151.186 91.288C151.531 91.8667 151.704 92.5247 151.704 93.262C151.704 93.9993 151.531 94.662 151.186 95.25C150.85 95.8287 150.379 96.2813 149.772 96.608C149.165 96.9347 148.479 97.098 147.714 97.098ZM147.714 95.6C148.358 95.6 148.89 95.3853 149.31 94.956C149.73 94.5267 149.94 93.962 149.94 93.262C149.94 92.562 149.73 91.9973 149.31 91.568C148.89 91.1387 148.358 90.924 147.714 90.924C147.07 90.924 146.538 91.1387 146.118 91.568C145.707 91.9973 145.502 92.562 145.502 93.262C145.502 93.962 145.707 94.5267 146.118 94.956C146.538 95.3853 147.07 95.6 147.714 95.6ZM152.971 87.2H155.043L154.693 93.752H153.307L152.971 87.2ZM154.007 97.098C153.68 97.098 153.409 96.9953 153.195 96.79C152.98 96.5753 152.873 96.314 152.873 96.006C152.873 95.698 152.98 95.4413 153.195 95.236C153.409 95.0307 153.68 94.928 154.007 94.928C154.324 94.928 154.585 95.0307 154.791 95.236C155.005 95.4413 155.113 95.698 155.113 96.006C155.113 96.314 155.005 96.5753 154.791 96.79C154.585 96.9953 154.324 97.098 154.007 97.098Z" fill="black"/>
</svg>
